<?xml version="1.0" encoding="UTF-8" standalone="no" ?>
<!DOCTYPE svg PUBLIC "-//W3C//DTD SVG 1.1//EN" "http://www.w3.org/Graphics/SVG/1.1/DTD/svg11.dtd">
<svg fill="current" stroke="current" xmlns="http://www.w3.org/2000/svg" xmlns:xlink="http://www.w3.org/1999/xlink" version="1.1" width="140" height="40" viewBox="0 0 1400 400" xml:space="preserve">
<desc>Created with Fabric.js 4.2.0</desc>
<defs>
</defs>
<g transform="matrix(1 0 0 1 700 200)" id="e2323684-8f53-4780-8edf-446a654d38e2"  >
<rect style="stroke: none; stroke-width: 1; stroke-dasharray: none; stroke-linecap: butt; stroke-dashoffset: 0; stroke-linejoin: miter; stroke-miterlimit: 4; fill: rgb(255,255,255); fill-opacity: 0; fill-rule: nonzero; opacity: 1;" vector-effect="non-scaling-stroke"  x="-700" y="-200" rx="0" ry="0" width="1400" height="400" />
</g>
<g transform="matrix(Infinity NaN NaN Infinity 0 0)" id="06ae0ac3-b879-4d99-b7a4-a65f66f3d3c5"  >
</g>
<g transform="matrix(9.45 0 0 9.45 200.64 200)" id="Combined-Shape"  >
<path style="stroke: rgb(126, 34, 206); stroke-width: 1; stroke-dasharray: none; stroke-linecap: butt; stroke-dashoffset: 0; stroke-linejoin: miter; stroke-miterlimit: 4; fill: rgb(126, 34, 206); fill-rule: nonzero; opacity: 1;" vector-effect="non-scaling-stroke"  transform=" translate(-19.96, -19.94)" d="M 2.21000547 7.7321089 C 7.45203021 -1.34734429 21.3085184 -1.78870317 30.3879716 3.45332157 C 39.4674248 8.69534632 42.5782752 20.3051981 37.3362504 29.3846513 C 32.0942257 38.4641045 19.8911536 42.7834557 10.8117004 37.5414309 C 1.73224719 32.2994062 -3.03201928 16.8115621 2.21000547 7.7321089 Z M 22.0443275 13.3232106 C 21.6715874 13.3232106 21.3759659 13.4356753 21.1574631 13.6606047 C 20.970175 13.8534013 20.8631532 14.1004957 20.8363977 14.401888 L 20.8297089 14.5571089 L 20.8297089 21.6520242 C 20.8297089 22.8088038 20.553367 23.6892417 20.0006834 24.2933377 C 19.4479998 24.8974338 18.6446806 25.1994818 17.5907258 25.1994818 C 16.5239179 25.1994818 15.7141721 24.900647 15.1614885 24.3029775 C 14.651319 23.7512826 14.3766124 22.9559111 14.3373686 21.9168628 L 14.3324631 21.6520242 L 14.3324631 14.5571089 C 14.3324631 14.1843688 14.2232117 13.885534 14.0047089 13.6606047 C 13.786206 13.4356753 13.4905846 13.3232106 13.1178444 13.3232106 C 12.7451043 13.3232106 12.4494829 13.4356753 12.23098 13.6606047 C 12.0436919 13.8534013 11.9366701 14.1004957 11.9099147 14.401888 L 11.9032258 14.5571089 L 11.9032258 21.5170665 C 11.9032258 23.367914 12.3852173 24.7753292 13.3492004 25.7393123 C 14.3131834 26.7032953 15.7270252 27.1852869 17.5907258 27.1852869 C 19.4415733 27.1852869 20.8489885 26.7000821 21.8129716 25.7296725 C 22.7202497 24.8163458 23.2005735 23.5187601 23.2539428 21.8369154 L 23.2589461 21.5170665 L 23.2589461 14.5571089 C 23.2589461 14.1843688 23.1496947 13.885534 22.9311919 13.6606047 C 22.7126891 13.4356753 22.4170676 13.3232106 22.0443275 13.3232106 Z M 27.3462343 13.3232106 C 26.9734942 13.3232106 26.6746594 13.4356753 26.44973 13.6606047 C 26.2569334 13.8534013 26.1467639 14.1004957 26.1192216 14.401888 L 26.112336 14.5571089 L 26.112336 25.8742699 C 26.112336 26.24701 26.2248007 26.5490581 26.44973 26.780414 C 26.6746594 27.0117699 26.9734942 27.1274479 27.3462343 27.1274479 C 27.7318275 27.1274479 28.0370888 27.0117699 28.2620182 26.780414 C 28.4548148 26.5821089 28.5649843 26.3318668 28.5925267 26.0296876 L 28.5994122 25.8742699 L 28.5994122 14.5571089 C 28.5994122 14.1843688 28.4869476 13.885534 28.2620182 13.6606047 C 28.0370888 13.4356753 27.7318275 13.3232106 27.3462343 13.3232106 Z" stroke-linecap="round" />
</g>
<g transform="matrix(1.38 0 0 1.38 880.71 200)" style="" id="661195fe-db27-4faa-9302-835671ba3d6f"  >
		<text xml:space="preserve" font-family="Courgette" font-size="105" font-style="normal" font-weight="900" style="stroke: none; stroke-width: 1; stroke-dasharray: none; stroke-linecap: butt; stroke-dashoffset: 0; stroke-linejoin: miter; stroke-miterlimit: 4; fill: rgb(126, 34, 206); fill-rule: nonzero; opacity: 1; white-space: pre;" ><tspan x="-322.59" y="32.98" >Practice Daily</tspan></text>
</g>
</svg>